G04 #@! TF.FileFunction,Legend,Top*
%FSLAX46Y46*%
G04 Gerber Fmt 4.6, Leading zero omitted, Abs format (unit mm)*
G04 Created by KiCad (PCBNEW 4.0.6) date Monday, March 05, 2018 'AMt' 11:38:23 AM*
%MOMM*%
%LPD*%
G01*
G04 APERTURE LIST*
%ADD10C,0.100000*%
%ADD11C,0.150000*%
%ADD12C,0.300000*%
%ADD13C,0.120000*%
G04 APERTURE END LIST*
D10*
D11*
X145920437Y-27965661D02*
X145920437Y-26965661D01*
X146253771Y-27679947D01*
X146587104Y-26965661D01*
X146587104Y-27965661D01*
X147634723Y-27870423D02*
X147587104Y-27918042D01*
X147444247Y-27965661D01*
X147349009Y-27965661D01*
X147206151Y-27918042D01*
X147110913Y-27822804D01*
X147063294Y-27727566D01*
X147015675Y-27537090D01*
X147015675Y-27394232D01*
X147063294Y-27203756D01*
X147110913Y-27108518D01*
X147206151Y-27013280D01*
X147349009Y-26965661D01*
X147444247Y-26965661D01*
X147587104Y-27013280D01*
X147634723Y-27060899D01*
X148539485Y-27965661D02*
X148063294Y-27965661D01*
X148063294Y-26965661D01*
X149444247Y-27965661D02*
X149110913Y-27489470D01*
X148872818Y-27965661D02*
X148872818Y-26965661D01*
X149253771Y-26965661D01*
X149349009Y-27013280D01*
X149396628Y-27060899D01*
X149444247Y-27156137D01*
X149444247Y-27298994D01*
X149396628Y-27394232D01*
X149349009Y-27441851D01*
X149253771Y-27489470D01*
X148872818Y-27489470D01*
X145682342Y-26793280D02*
X149634723Y-26793280D01*
X149872818Y-27298994D02*
X150634723Y-27584709D01*
X149872818Y-27870423D01*
D12*
X46727439Y-82982880D02*
X47441725Y-82982880D01*
X46584582Y-83411451D02*
X47084582Y-81911451D01*
X47584582Y-83411451D01*
X48727439Y-83411451D02*
X48727439Y-82625737D01*
X48656010Y-82482880D01*
X48513153Y-82411451D01*
X48227439Y-82411451D01*
X48084582Y-82482880D01*
X48727439Y-83340023D02*
X48584582Y-83411451D01*
X48227439Y-83411451D01*
X48084582Y-83340023D01*
X48013153Y-83197166D01*
X48013153Y-83054309D01*
X48084582Y-82911451D01*
X48227439Y-82840023D01*
X48584582Y-82840023D01*
X48727439Y-82768594D01*
X49441725Y-83411451D02*
X49441725Y-82411451D01*
X49441725Y-82697166D02*
X49513153Y-82554309D01*
X49584582Y-82482880D01*
X49727439Y-82411451D01*
X49870296Y-82411451D01*
X50584582Y-83411451D02*
X50441724Y-83340023D01*
X50370296Y-83268594D01*
X50298867Y-83125737D01*
X50298867Y-82697166D01*
X50370296Y-82554309D01*
X50441724Y-82482880D01*
X50584582Y-82411451D01*
X50798867Y-82411451D01*
X50941724Y-82482880D01*
X51013153Y-82554309D01*
X51084582Y-82697166D01*
X51084582Y-83125737D01*
X51013153Y-83268594D01*
X50941724Y-83340023D01*
X50798867Y-83411451D01*
X50584582Y-83411451D01*
X51727439Y-82411451D02*
X51727439Y-83411451D01*
X51727439Y-82554309D02*
X51798867Y-82482880D01*
X51941725Y-82411451D01*
X52156010Y-82411451D01*
X52298867Y-82482880D01*
X52370296Y-82625737D01*
X52370296Y-83411451D01*
X54227439Y-83411451D02*
X54227439Y-81911451D01*
X54727439Y-82982880D01*
X55227439Y-81911451D01*
X55227439Y-83411451D01*
X56156011Y-83411451D02*
X56013153Y-83340023D01*
X55941725Y-83268594D01*
X55870296Y-83125737D01*
X55870296Y-82697166D01*
X55941725Y-82554309D01*
X56013153Y-82482880D01*
X56156011Y-82411451D01*
X56370296Y-82411451D01*
X56513153Y-82482880D01*
X56584582Y-82554309D01*
X56656011Y-82697166D01*
X56656011Y-83125737D01*
X56584582Y-83268594D01*
X56513153Y-83340023D01*
X56370296Y-83411451D01*
X56156011Y-83411451D01*
X57298868Y-83411451D02*
X57298868Y-82411451D01*
X57298868Y-82697166D02*
X57370296Y-82554309D01*
X57441725Y-82482880D01*
X57584582Y-82411451D01*
X57727439Y-82411451D01*
X58227439Y-83411451D02*
X58227439Y-82411451D01*
X58227439Y-82697166D02*
X58298867Y-82554309D01*
X58370296Y-82482880D01*
X58513153Y-82411451D01*
X58656010Y-82411451D01*
X59156010Y-83411451D02*
X59156010Y-82411451D01*
X59156010Y-81911451D02*
X59084581Y-81982880D01*
X59156010Y-82054309D01*
X59227438Y-81982880D01*
X59156010Y-81911451D01*
X59156010Y-82054309D01*
X59798867Y-83340023D02*
X59941724Y-83411451D01*
X60227439Y-83411451D01*
X60370296Y-83340023D01*
X60441724Y-83197166D01*
X60441724Y-83125737D01*
X60370296Y-82982880D01*
X60227439Y-82911451D01*
X60013153Y-82911451D01*
X59870296Y-82840023D01*
X59798867Y-82697166D01*
X59798867Y-82625737D01*
X59870296Y-82482880D01*
X60013153Y-82411451D01*
X60227439Y-82411451D01*
X60370296Y-82482880D01*
X61298868Y-83411451D02*
X61156010Y-83340023D01*
X61084582Y-83268594D01*
X61013153Y-83125737D01*
X61013153Y-82697166D01*
X61084582Y-82554309D01*
X61156010Y-82482880D01*
X61298868Y-82411451D01*
X61513153Y-82411451D01*
X61656010Y-82482880D01*
X61727439Y-82554309D01*
X61798868Y-82697166D01*
X61798868Y-83125737D01*
X61727439Y-83268594D01*
X61656010Y-83340023D01*
X61513153Y-83411451D01*
X61298868Y-83411451D01*
X62441725Y-82411451D02*
X62441725Y-83411451D01*
X62441725Y-82554309D02*
X62513153Y-82482880D01*
X62656011Y-82411451D01*
X62870296Y-82411451D01*
X63013153Y-82482880D01*
X63084582Y-82625737D01*
X63084582Y-83411451D01*
X64941725Y-82840023D02*
X66084582Y-82840023D01*
X67870296Y-82054309D02*
X67941725Y-81982880D01*
X68084582Y-81911451D01*
X68441725Y-81911451D01*
X68584582Y-81982880D01*
X68656011Y-82054309D01*
X68727439Y-82197166D01*
X68727439Y-82340023D01*
X68656011Y-82554309D01*
X67798868Y-83411451D01*
X68727439Y-83411451D01*
X69656010Y-81911451D02*
X69798867Y-81911451D01*
X69941724Y-81982880D01*
X70013153Y-82054309D01*
X70084582Y-82197166D01*
X70156010Y-82482880D01*
X70156010Y-82840023D01*
X70084582Y-83125737D01*
X70013153Y-83268594D01*
X69941724Y-83340023D01*
X69798867Y-83411451D01*
X69656010Y-83411451D01*
X69513153Y-83340023D01*
X69441724Y-83268594D01*
X69370296Y-83125737D01*
X69298867Y-82840023D01*
X69298867Y-82482880D01*
X69370296Y-82197166D01*
X69441724Y-82054309D01*
X69513153Y-81982880D01*
X69656010Y-81911451D01*
X71584581Y-83411451D02*
X70727438Y-83411451D01*
X71156010Y-83411451D02*
X71156010Y-81911451D01*
X71013153Y-82125737D01*
X70870295Y-82268594D01*
X70727438Y-82340023D01*
X72441724Y-82554309D02*
X72298866Y-82482880D01*
X72227438Y-82411451D01*
X72156009Y-82268594D01*
X72156009Y-82197166D01*
X72227438Y-82054309D01*
X72298866Y-81982880D01*
X72441724Y-81911451D01*
X72727438Y-81911451D01*
X72870295Y-81982880D01*
X72941724Y-82054309D01*
X73013152Y-82197166D01*
X73013152Y-82268594D01*
X72941724Y-82411451D01*
X72870295Y-82482880D01*
X72727438Y-82554309D01*
X72441724Y-82554309D01*
X72298866Y-82625737D01*
X72227438Y-82697166D01*
X72156009Y-82840023D01*
X72156009Y-83125737D01*
X72227438Y-83268594D01*
X72298866Y-83340023D01*
X72441724Y-83411451D01*
X72727438Y-83411451D01*
X72870295Y-83340023D01*
X72941724Y-83268594D01*
X73013152Y-83125737D01*
X73013152Y-82840023D01*
X72941724Y-82697166D01*
X72870295Y-82625737D01*
X72727438Y-82554309D01*
X73656009Y-82840023D02*
X74798866Y-82840023D01*
X75798866Y-81911451D02*
X75941723Y-81911451D01*
X76084580Y-81982880D01*
X76156009Y-82054309D01*
X76227438Y-82197166D01*
X76298866Y-82482880D01*
X76298866Y-82840023D01*
X76227438Y-83125737D01*
X76156009Y-83268594D01*
X76084580Y-83340023D01*
X75941723Y-83411451D01*
X75798866Y-83411451D01*
X75656009Y-83340023D01*
X75584580Y-83268594D01*
X75513152Y-83125737D01*
X75441723Y-82840023D01*
X75441723Y-82482880D01*
X75513152Y-82197166D01*
X75584580Y-82054309D01*
X75656009Y-81982880D01*
X75798866Y-81911451D01*
X76798866Y-81911451D02*
X77727437Y-81911451D01*
X77227437Y-82482880D01*
X77441723Y-82482880D01*
X77584580Y-82554309D01*
X77656009Y-82625737D01*
X77727437Y-82768594D01*
X77727437Y-83125737D01*
X77656009Y-83268594D01*
X77584580Y-83340023D01*
X77441723Y-83411451D01*
X77013151Y-83411451D01*
X76870294Y-83340023D01*
X76798866Y-83268594D01*
X78370294Y-82840023D02*
X79513151Y-82840023D01*
X80513151Y-81911451D02*
X80656008Y-81911451D01*
X80798865Y-81982880D01*
X80870294Y-82054309D01*
X80941723Y-82197166D01*
X81013151Y-82482880D01*
X81013151Y-82840023D01*
X80941723Y-83125737D01*
X80870294Y-83268594D01*
X80798865Y-83340023D01*
X80656008Y-83411451D01*
X80513151Y-83411451D01*
X80370294Y-83340023D01*
X80298865Y-83268594D01*
X80227437Y-83125737D01*
X80156008Y-82840023D01*
X80156008Y-82482880D01*
X80227437Y-82197166D01*
X80298865Y-82054309D01*
X80370294Y-81982880D01*
X80513151Y-81911451D01*
X82370294Y-81911451D02*
X81656008Y-81911451D01*
X81584579Y-82625737D01*
X81656008Y-82554309D01*
X81798865Y-82482880D01*
X82156008Y-82482880D01*
X82298865Y-82554309D01*
X82370294Y-82625737D01*
X82441722Y-82768594D01*
X82441722Y-83125737D01*
X82370294Y-83268594D01*
X82298865Y-83340023D01*
X82156008Y-83411451D01*
X81798865Y-83411451D01*
X81656008Y-83340023D01*
X81584579Y-83268594D01*
X53060142Y-80046473D02*
X51393475Y-80046473D01*
X51830975Y-76546473D01*
X54726808Y-80046473D02*
X54414309Y-79879807D01*
X54268475Y-79713140D01*
X54143476Y-79379807D01*
X54268476Y-78379807D01*
X54476808Y-78046473D01*
X54664309Y-77879807D01*
X55018475Y-77713140D01*
X55518475Y-77713140D01*
X55830976Y-77879807D01*
X55976808Y-78046473D01*
X56101809Y-78379807D01*
X55976809Y-79379807D01*
X55768475Y-79713140D01*
X55580976Y-79879807D01*
X55226808Y-80046473D01*
X54726808Y-80046473D01*
X57685142Y-77713140D02*
X57393475Y-80046473D01*
X57643475Y-78046473D02*
X57830976Y-77879807D01*
X58185142Y-77713140D01*
X58685142Y-77713140D01*
X58997643Y-77879807D01*
X59122642Y-78213140D01*
X58893475Y-80046473D01*
X62351809Y-77713140D02*
X61997642Y-80546473D01*
X61789310Y-80879807D01*
X61601809Y-81046473D01*
X61247643Y-81213140D01*
X60747643Y-81213140D01*
X60435142Y-81046473D01*
X62080976Y-79879807D02*
X61726809Y-80046473D01*
X61060142Y-80046473D01*
X60747643Y-79879807D01*
X60601809Y-79713140D01*
X60476810Y-79379807D01*
X60601810Y-78379807D01*
X60810142Y-78046473D01*
X60997643Y-77879807D01*
X61351809Y-77713140D01*
X62018476Y-77713140D01*
X62330976Y-77879807D01*
X68435143Y-79713140D02*
X68247644Y-79879807D01*
X67726810Y-80046473D01*
X67393476Y-80046473D01*
X66914310Y-79879807D01*
X66622643Y-79546473D01*
X66497643Y-79213140D01*
X66414310Y-78546473D01*
X66476810Y-78046473D01*
X66726810Y-77379807D01*
X66935143Y-77046473D01*
X67310143Y-76713140D01*
X67830976Y-76546473D01*
X68164310Y-76546473D01*
X68643477Y-76713140D01*
X68789310Y-76879807D01*
X70393476Y-80046473D02*
X70080977Y-79879807D01*
X69935143Y-79713140D01*
X69810144Y-79379807D01*
X69935144Y-78379807D01*
X70143476Y-78046473D01*
X70330977Y-77879807D01*
X70685143Y-77713140D01*
X71185143Y-77713140D01*
X71497644Y-77879807D01*
X71643476Y-78046473D01*
X71768477Y-78379807D01*
X71643477Y-79379807D01*
X71435143Y-79713140D01*
X71247644Y-79879807D01*
X70893476Y-80046473D01*
X70393476Y-80046473D01*
X74851810Y-77713140D02*
X74560143Y-80046473D01*
X73351810Y-77713140D02*
X73122643Y-79546473D01*
X73247644Y-79879807D01*
X73560143Y-80046473D01*
X74060143Y-80046473D01*
X74414311Y-79879807D01*
X74601810Y-79713140D01*
X76518477Y-77713140D02*
X76226810Y-80046473D01*
X76476810Y-78046473D02*
X76664311Y-77879807D01*
X77018477Y-77713140D01*
X77518477Y-77713140D01*
X77830978Y-77879807D01*
X77955977Y-78213140D01*
X77726810Y-80046473D01*
X79185144Y-77713140D02*
X80518478Y-77713140D01*
X79830977Y-76546473D02*
X79455977Y-79546473D01*
X79580978Y-79879807D01*
X79893477Y-80046473D01*
X80226811Y-80046473D01*
X110827775Y-74062305D02*
X111184918Y-74181352D01*
X111780156Y-74181352D01*
X112018252Y-74062305D01*
X112137299Y-73943257D01*
X112256347Y-73705162D01*
X112256347Y-73467067D01*
X112137299Y-73228971D01*
X112018252Y-73109924D01*
X111780156Y-72990876D01*
X111303966Y-72871829D01*
X111065871Y-72752781D01*
X110946823Y-72633733D01*
X110827775Y-72395638D01*
X110827775Y-72157543D01*
X110946823Y-71919448D01*
X111065871Y-71800400D01*
X111303966Y-71681352D01*
X111899204Y-71681352D01*
X112256347Y-71800400D01*
X114280156Y-74062305D02*
X114042061Y-74181352D01*
X113565870Y-74181352D01*
X113327775Y-74062305D01*
X113208727Y-73824210D01*
X113208727Y-72871829D01*
X113327775Y-72633733D01*
X113565870Y-72514686D01*
X114042061Y-72514686D01*
X114280156Y-72633733D01*
X114399204Y-72871829D01*
X114399204Y-73109924D01*
X113208727Y-73348019D01*
X116542061Y-74062305D02*
X116303965Y-74181352D01*
X115827775Y-74181352D01*
X115589680Y-74062305D01*
X115470632Y-73943257D01*
X115351584Y-73705162D01*
X115351584Y-72990876D01*
X115470632Y-72752781D01*
X115589680Y-72633733D01*
X115827775Y-72514686D01*
X116303965Y-72514686D01*
X116542061Y-72633733D01*
X117970632Y-74181352D02*
X117732537Y-74062305D01*
X117613489Y-73943257D01*
X117494441Y-73705162D01*
X117494441Y-72990876D01*
X117613489Y-72752781D01*
X117732537Y-72633733D01*
X117970632Y-72514686D01*
X118327775Y-72514686D01*
X118565870Y-72633733D01*
X118684918Y-72752781D01*
X118803965Y-72990876D01*
X118803965Y-73705162D01*
X118684918Y-73943257D01*
X118565870Y-74062305D01*
X118327775Y-74181352D01*
X117970632Y-74181352D01*
X119875394Y-72514686D02*
X119875394Y-74181352D01*
X119875394Y-72752781D02*
X119994442Y-72633733D01*
X120232537Y-72514686D01*
X120589680Y-72514686D01*
X120827775Y-72633733D01*
X120946823Y-72871829D01*
X120946823Y-74181352D01*
X123208728Y-74181352D02*
X123208728Y-71681352D01*
X123208728Y-74062305D02*
X122970632Y-74181352D01*
X122494442Y-74181352D01*
X122256347Y-74062305D01*
X122137299Y-73943257D01*
X122018251Y-73705162D01*
X122018251Y-72990876D01*
X122137299Y-72752781D01*
X122256347Y-72633733D01*
X122494442Y-72514686D01*
X122970632Y-72514686D01*
X123208728Y-72633733D01*
X124280156Y-74062305D02*
X124518252Y-74181352D01*
X124994442Y-74181352D01*
X125232537Y-74062305D01*
X125351585Y-73824210D01*
X125351585Y-73705162D01*
X125232537Y-73467067D01*
X124994442Y-73348019D01*
X124637299Y-73348019D01*
X124399204Y-73228971D01*
X124280156Y-72990876D01*
X124280156Y-72871829D01*
X124399204Y-72633733D01*
X124637299Y-72514686D01*
X124994442Y-72514686D01*
X125232537Y-72633733D01*
X70529785Y-74526792D02*
X70529785Y-72026792D01*
X71363118Y-73812507D01*
X72196452Y-72026792D01*
X72196452Y-74526792D01*
X73386928Y-74526792D02*
X73386928Y-72860126D01*
X73386928Y-72026792D02*
X73267880Y-72145840D01*
X73386928Y-72264888D01*
X73505976Y-72145840D01*
X73386928Y-72026792D01*
X73386928Y-72264888D01*
X74577404Y-72860126D02*
X74577404Y-74526792D01*
X74577404Y-73098221D02*
X74696452Y-72979173D01*
X74934547Y-72860126D01*
X75291690Y-72860126D01*
X75529785Y-72979173D01*
X75648833Y-73217269D01*
X75648833Y-74526792D01*
X77910738Y-72860126D02*
X77910738Y-74526792D01*
X76839309Y-72860126D02*
X76839309Y-74169650D01*
X76958357Y-74407745D01*
X77196452Y-74526792D01*
X77553595Y-74526792D01*
X77791690Y-74407745D01*
X77910738Y-74288697D01*
X78744071Y-72860126D02*
X79696452Y-72860126D01*
X79101214Y-72026792D02*
X79101214Y-74169650D01*
X79220262Y-74407745D01*
X79458357Y-74526792D01*
X79696452Y-74526792D01*
X81482166Y-74407745D02*
X81244071Y-74526792D01*
X80767880Y-74526792D01*
X80529785Y-74407745D01*
X80410737Y-74169650D01*
X80410737Y-73217269D01*
X80529785Y-72979173D01*
X80767880Y-72860126D01*
X81244071Y-72860126D01*
X81482166Y-72979173D01*
X81601214Y-73217269D01*
X81601214Y-73455364D01*
X80410737Y-73693459D01*
X82553594Y-74407745D02*
X82791690Y-74526792D01*
X83267880Y-74526792D01*
X83505975Y-74407745D01*
X83625023Y-74169650D01*
X83625023Y-74050602D01*
X83505975Y-73812507D01*
X83267880Y-73693459D01*
X82910737Y-73693459D01*
X82672642Y-73574411D01*
X82553594Y-73336316D01*
X82553594Y-73217269D01*
X82672642Y-72979173D01*
X82910737Y-72860126D01*
X83267880Y-72860126D01*
X83505975Y-72979173D01*
X48796535Y-74298192D02*
X48796535Y-71798192D01*
X48796535Y-72988669D02*
X50225107Y-72988669D01*
X50225107Y-74298192D02*
X50225107Y-71798192D01*
X51772726Y-74298192D02*
X51534631Y-74179145D01*
X51415583Y-74060097D01*
X51296535Y-73822002D01*
X51296535Y-73107716D01*
X51415583Y-72869621D01*
X51534631Y-72750573D01*
X51772726Y-72631526D01*
X52129869Y-72631526D01*
X52367964Y-72750573D01*
X52487012Y-72869621D01*
X52606059Y-73107716D01*
X52606059Y-73822002D01*
X52487012Y-74060097D01*
X52367964Y-74179145D01*
X52129869Y-74298192D01*
X51772726Y-74298192D01*
X54748917Y-72631526D02*
X54748917Y-74298192D01*
X53677488Y-72631526D02*
X53677488Y-73941050D01*
X53796536Y-74179145D01*
X54034631Y-74298192D01*
X54391774Y-74298192D01*
X54629869Y-74179145D01*
X54748917Y-74060097D01*
X55939393Y-74298192D02*
X55939393Y-72631526D01*
X55939393Y-73107716D02*
X56058441Y-72869621D01*
X56177488Y-72750573D01*
X56415584Y-72631526D01*
X56653679Y-72631526D01*
X57367964Y-74179145D02*
X57606060Y-74298192D01*
X58082250Y-74298192D01*
X58320345Y-74179145D01*
X58439393Y-73941050D01*
X58439393Y-73822002D01*
X58320345Y-73583907D01*
X58082250Y-73464859D01*
X57725107Y-73464859D01*
X57487012Y-73345811D01*
X57367964Y-73107716D01*
X57367964Y-72988669D01*
X57487012Y-72750573D01*
X57725107Y-72631526D01*
X58082250Y-72631526D01*
X58320345Y-72750573D01*
X126839020Y-49007412D02*
X126839020Y-46507412D01*
X127434258Y-46507412D01*
X127791401Y-46626460D01*
X128029496Y-46864555D01*
X128148544Y-47102650D01*
X128267592Y-47578841D01*
X128267592Y-47935984D01*
X128148544Y-48412174D01*
X128029496Y-48650270D01*
X127791401Y-48888365D01*
X127434258Y-49007412D01*
X126839020Y-49007412D01*
X130410449Y-49007412D02*
X130410449Y-47697889D01*
X130291401Y-47459793D01*
X130053306Y-47340746D01*
X129577115Y-47340746D01*
X129339020Y-47459793D01*
X130410449Y-48888365D02*
X130172353Y-49007412D01*
X129577115Y-49007412D01*
X129339020Y-48888365D01*
X129219972Y-48650270D01*
X129219972Y-48412174D01*
X129339020Y-48174079D01*
X129577115Y-48055031D01*
X130172353Y-48055031D01*
X130410449Y-47935984D01*
X131362830Y-47340746D02*
X131958068Y-49007412D01*
X132553306Y-47340746D02*
X131958068Y-49007412D01*
X131719973Y-49602650D01*
X131600925Y-49721698D01*
X131362830Y-49840746D01*
X133386639Y-48888365D02*
X133624735Y-49007412D01*
X134100925Y-49007412D01*
X134339020Y-48888365D01*
X134458068Y-48650270D01*
X134458068Y-48531222D01*
X134339020Y-48293127D01*
X134100925Y-48174079D01*
X133743782Y-48174079D01*
X133505687Y-48055031D01*
X133386639Y-47816936D01*
X133386639Y-47697889D01*
X133505687Y-47459793D01*
X133743782Y-47340746D01*
X134100925Y-47340746D01*
X134339020Y-47459793D01*
X100819059Y-48974392D02*
X100819059Y-46474392D01*
X101652392Y-48260107D01*
X102485726Y-46474392D01*
X102485726Y-48974392D01*
X104033345Y-48974392D02*
X103795250Y-48855345D01*
X103676202Y-48736297D01*
X103557154Y-48498202D01*
X103557154Y-47783916D01*
X103676202Y-47545821D01*
X103795250Y-47426773D01*
X104033345Y-47307726D01*
X104390488Y-47307726D01*
X104628583Y-47426773D01*
X104747631Y-47545821D01*
X104866678Y-47783916D01*
X104866678Y-48498202D01*
X104747631Y-48736297D01*
X104628583Y-48855345D01*
X104390488Y-48974392D01*
X104033345Y-48974392D01*
X105938107Y-47307726D02*
X105938107Y-48974392D01*
X105938107Y-47545821D02*
X106057155Y-47426773D01*
X106295250Y-47307726D01*
X106652393Y-47307726D01*
X106890488Y-47426773D01*
X107009536Y-47664869D01*
X107009536Y-48974392D01*
X107842869Y-47307726D02*
X108795250Y-47307726D01*
X108200012Y-46474392D02*
X108200012Y-48617250D01*
X108319060Y-48855345D01*
X108557155Y-48974392D01*
X108795250Y-48974392D01*
X109628583Y-48974392D02*
X109628583Y-46474392D01*
X110700012Y-48974392D02*
X110700012Y-47664869D01*
X110580964Y-47426773D01*
X110342869Y-47307726D01*
X109985726Y-47307726D01*
X109747631Y-47426773D01*
X109628583Y-47545821D01*
X111771440Y-48855345D02*
X112009536Y-48974392D01*
X112485726Y-48974392D01*
X112723821Y-48855345D01*
X112842869Y-48617250D01*
X112842869Y-48498202D01*
X112723821Y-48260107D01*
X112485726Y-48141059D01*
X112128583Y-48141059D01*
X111890488Y-48022011D01*
X111771440Y-47783916D01*
X111771440Y-47664869D01*
X111890488Y-47426773D01*
X112128583Y-47307726D01*
X112485726Y-47307726D01*
X112723821Y-47426773D01*
X61498185Y-47961716D02*
X61498185Y-49152192D01*
X60664851Y-46652192D02*
X61498185Y-47961716D01*
X62331518Y-46652192D01*
X64117232Y-49033145D02*
X63879137Y-49152192D01*
X63402946Y-49152192D01*
X63164851Y-49033145D01*
X63045803Y-48795050D01*
X63045803Y-47842669D01*
X63164851Y-47604573D01*
X63402946Y-47485526D01*
X63879137Y-47485526D01*
X64117232Y-47604573D01*
X64236280Y-47842669D01*
X64236280Y-48080764D01*
X63045803Y-48318859D01*
X66379137Y-49152192D02*
X66379137Y-47842669D01*
X66260089Y-47604573D01*
X66021994Y-47485526D01*
X65545803Y-47485526D01*
X65307708Y-47604573D01*
X66379137Y-49033145D02*
X66141041Y-49152192D01*
X65545803Y-49152192D01*
X65307708Y-49033145D01*
X65188660Y-48795050D01*
X65188660Y-48556954D01*
X65307708Y-48318859D01*
X65545803Y-48199811D01*
X66141041Y-48199811D01*
X66379137Y-48080764D01*
X67569613Y-49152192D02*
X67569613Y-47485526D01*
X67569613Y-47961716D02*
X67688661Y-47723621D01*
X67807708Y-47604573D01*
X68045804Y-47485526D01*
X68283899Y-47485526D01*
X68998184Y-49033145D02*
X69236280Y-49152192D01*
X69712470Y-49152192D01*
X69950565Y-49033145D01*
X70069613Y-48795050D01*
X70069613Y-48676002D01*
X69950565Y-48437907D01*
X69712470Y-48318859D01*
X69355327Y-48318859D01*
X69117232Y-48199811D01*
X68998184Y-47961716D01*
X68998184Y-47842669D01*
X69117232Y-47604573D01*
X69355327Y-47485526D01*
X69712470Y-47485526D01*
X69950565Y-47604573D01*
D13*
X180506440Y-57730840D02*
X180506440Y-58380840D01*
X180506440Y-58380840D02*
X174006440Y-58380840D01*
X174006440Y-58380840D02*
X174006440Y-57730840D01*
X180506440Y-52230840D02*
X180506440Y-51580840D01*
X180506440Y-51580840D02*
X174006440Y-51580840D01*
X174006440Y-51580840D02*
X174006440Y-52230840D01*
X180506440Y-53730840D02*
X180506440Y-56230840D01*
X174006440Y-53730840D02*
X174006440Y-56230840D01*
X181831040Y-47295560D02*
X181831040Y-34095560D01*
X172631040Y-34095560D02*
X181831040Y-34095560D01*
X172631040Y-47295560D02*
X172631040Y-34095560D01*
X172631040Y-47295560D02*
X181831040Y-47295560D01*
X179231040Y-44485560D02*
G75*
G03X179231040Y-44485560I-2000000J0D01*
G01*
X39500000Y-70580000D02*
X39500000Y-51340000D01*
X39500000Y-70580000D02*
X90040000Y-70580000D01*
X90040000Y-70580000D02*
X90040000Y-51340000D01*
X90040000Y-51340000D02*
X39500000Y-51340000D01*
X57420000Y-70960000D02*
X59420000Y-70960000D01*
X92840000Y-70580000D02*
X92840000Y-51340000D01*
X92840000Y-70580000D02*
X143380000Y-70580000D01*
X143380000Y-70580000D02*
X143380000Y-51340000D01*
X143380000Y-51340000D02*
X92840000Y-51340000D01*
X110760000Y-70960000D02*
X112760000Y-70960000D01*
X92840000Y-45180000D02*
X92840000Y-25940000D01*
X92840000Y-45180000D02*
X143380000Y-45180000D01*
X143380000Y-45180000D02*
X143380000Y-25940000D01*
X143380000Y-25940000D02*
X92840000Y-25940000D01*
X110760000Y-45560000D02*
X112760000Y-45560000D01*
X39500000Y-45180000D02*
X39500000Y-25940000D01*
X39500000Y-45180000D02*
X90040000Y-45180000D01*
X90040000Y-45180000D02*
X90040000Y-25940000D01*
X90040000Y-25940000D02*
X39500000Y-25940000D01*
X57420000Y-45560000D02*
X59420000Y-45560000D01*
X151196000Y-83110000D02*
X153096000Y-83110000D01*
X153096000Y-83110000D02*
X153096000Y-78410000D01*
X151196000Y-83110000D02*
X151196000Y-78410000D01*
X147132000Y-83110000D02*
X149032000Y-83110000D01*
X149032000Y-83110000D02*
X149032000Y-78410000D01*
X147132000Y-83110000D02*
X147132000Y-78410000D01*
X110956000Y-78740000D02*
X117456000Y-78740000D01*
X110956000Y-82240000D02*
X110956000Y-75240000D01*
X102206000Y-75240000D02*
X110956000Y-75240000D01*
X102206000Y-82240000D02*
X110956000Y-82240000D01*
X124956000Y-76240000D02*
X126206000Y-76240000D01*
X124706000Y-81240000D02*
X126206000Y-81240000D01*
X112706000Y-76240000D02*
X124956000Y-76240000D01*
X112956000Y-81240000D02*
X124706000Y-81240000D01*
X102206000Y-76240000D02*
X112706000Y-76240000D01*
X102206000Y-81240000D02*
X112956000Y-81240000D01*
X102206000Y-81240000D02*
X102206000Y-76240000D01*
X101206000Y-82240000D02*
X102206000Y-82240000D01*
X101206000Y-82240000D02*
X101206000Y-75240000D01*
X101206000Y-75240000D02*
X102206000Y-75240000D01*
X126206000Y-81240000D02*
X126206000Y-76240000D01*
X117456000Y-82240000D02*
X127206000Y-82240000D01*
X127206000Y-82240000D02*
X127206000Y-75240000D01*
X117456000Y-75240000D02*
X127206000Y-75240000D01*
X117456000Y-82240000D02*
X117456000Y-75240000D01*
X167855000Y-28630000D02*
X167855000Y-25970000D01*
X155095000Y-28630000D02*
X167855000Y-28630000D01*
X155095000Y-25970000D02*
X167855000Y-25970000D01*
X155095000Y-28630000D02*
X155095000Y-25970000D01*
X153825000Y-28630000D02*
X152495000Y-28630000D01*
X152495000Y-28630000D02*
X152495000Y-27300000D01*
X94770000Y-81200000D02*
X94770000Y-90000000D01*
X94770000Y-90000000D02*
X85570000Y-90000000D01*
X92070000Y-75300000D02*
X94770000Y-75300000D01*
X94770000Y-75300000D02*
X94770000Y-77200000D01*
X85570000Y-90000000D02*
X85570000Y-75300000D01*
X85570000Y-75300000D02*
X88170000Y-75300000D01*
X157026000Y-79010000D02*
X157026000Y-81010000D01*
X154886000Y-81010000D02*
X154886000Y-79010000D01*
X150892000Y-29918000D02*
X152892000Y-29918000D01*
X152892000Y-32058000D02*
X150892000Y-32058000D01*
X145088000Y-79010000D02*
X145088000Y-81010000D01*
X142948000Y-81010000D02*
X142948000Y-79010000D01*
X180506440Y-75642920D02*
X180506440Y-76292920D01*
X180506440Y-76292920D02*
X174006440Y-76292920D01*
X174006440Y-76292920D02*
X174006440Y-75642920D01*
X180506440Y-70142920D02*
X180506440Y-69492920D01*
X180506440Y-69492920D02*
X174006440Y-69492920D01*
X174006440Y-69492920D02*
X174006440Y-70142920D01*
X180506440Y-71642920D02*
X180506440Y-74142920D01*
X174006440Y-71642920D02*
X174006440Y-74142920D01*
X180460720Y-66686880D02*
X180460720Y-67336880D01*
X180460720Y-67336880D02*
X173960720Y-67336880D01*
X173960720Y-67336880D02*
X173960720Y-66686880D01*
X180460720Y-61186880D02*
X180460720Y-60536880D01*
X180460720Y-60536880D02*
X173960720Y-60536880D01*
X173960720Y-60536880D02*
X173960720Y-61186880D01*
X180460720Y-62686880D02*
X180460720Y-65186880D01*
X173960720Y-62686880D02*
X173960720Y-65186880D01*
X162085000Y-31295000D02*
G75*
G02X160085000Y-31295000I-1000000J0D01*
G01*
X160085000Y-31295000D02*
X158435000Y-31295000D01*
X158435000Y-31295000D02*
X158435000Y-66975000D01*
X158435000Y-66975000D02*
X163735000Y-66975000D01*
X163735000Y-66975000D02*
X163735000Y-31295000D01*
X163735000Y-31295000D02*
X162085000Y-31295000D01*
X155945000Y-31235000D02*
X155945000Y-67035000D01*
X155945000Y-67035000D02*
X166225000Y-67035000D01*
X166225000Y-67035000D02*
X166225000Y-31235000D01*
X166225000Y-31235000D02*
X155945000Y-31235000D01*
X145201400Y-56157400D02*
X145201400Y-49757400D01*
X150251400Y-56157400D02*
X150251400Y-49757400D01*
X150251400Y-56157400D02*
G75*
G02X145201400Y-56157400I-2525000J0D01*
G01*
X150251400Y-49757400D02*
G75*
G03X145201400Y-49757400I-2525000J0D01*
G01*
X130521080Y-75231000D02*
X140761080Y-75231000D01*
X130521080Y-79872000D02*
X140761080Y-79872000D01*
X130521080Y-75231000D02*
X130521080Y-79872000D01*
X140761080Y-75231000D02*
X140761080Y-79872000D01*
X130521080Y-76741000D02*
X140761080Y-76741000D01*
X133791080Y-75231000D02*
X133791080Y-76741000D01*
X137492080Y-75231000D02*
X137492080Y-76741000D01*
D11*
X174119707Y-59932202D02*
X174262564Y-59979821D01*
X174500660Y-59979821D01*
X174595898Y-59932202D01*
X174643517Y-59884583D01*
X174691136Y-59789345D01*
X174691136Y-59694107D01*
X174643517Y-59598869D01*
X174595898Y-59551250D01*
X174500660Y-59503630D01*
X174310183Y-59456011D01*
X174214945Y-59408392D01*
X174167326Y-59360773D01*
X174119707Y-59265535D01*
X174119707Y-59170297D01*
X174167326Y-59075059D01*
X174214945Y-59027440D01*
X174310183Y-58979821D01*
X174548279Y-58979821D01*
X174691136Y-59027440D01*
X175024469Y-58979821D02*
X175262564Y-59979821D01*
X175453041Y-59265535D01*
X175643517Y-59979821D01*
X175881612Y-58979821D01*
X176691136Y-59313154D02*
X176691136Y-59979821D01*
X176453040Y-58932202D02*
X176214945Y-59646488D01*
X176833993Y-59646488D01*
X172661107Y-51100122D02*
X172803964Y-51147741D01*
X173042060Y-51147741D01*
X173137298Y-51100122D01*
X173184917Y-51052503D01*
X173232536Y-50957265D01*
X173232536Y-50862027D01*
X173184917Y-50766789D01*
X173137298Y-50719170D01*
X173042060Y-50671550D01*
X172851583Y-50623931D01*
X172756345Y-50576312D01*
X172708726Y-50528693D01*
X172661107Y-50433455D01*
X172661107Y-50338217D01*
X172708726Y-50242979D01*
X172756345Y-50195360D01*
X172851583Y-50147741D01*
X173089679Y-50147741D01*
X173232536Y-50195360D01*
X173565869Y-50147741D02*
X173803964Y-51147741D01*
X173994441Y-50433455D01*
X174184917Y-51147741D01*
X174423012Y-50147741D01*
X175327774Y-51147741D02*
X174756345Y-51147741D01*
X175042059Y-51147741D02*
X175042059Y-50147741D01*
X174946821Y-50290598D01*
X174851583Y-50385836D01*
X174756345Y-50433455D01*
X151438385Y-75346821D02*
X151438385Y-74346821D01*
X151676480Y-74346821D01*
X151819338Y-74394440D01*
X151914576Y-74489678D01*
X151962195Y-74584916D01*
X152009814Y-74775392D01*
X152009814Y-74918250D01*
X151962195Y-75108726D01*
X151914576Y-75203964D01*
X151819338Y-75299202D01*
X151676480Y-75346821D01*
X151438385Y-75346821D01*
X152962195Y-75346821D02*
X152390766Y-75346821D01*
X152676480Y-75346821D02*
X152676480Y-74346821D01*
X152581242Y-74489678D01*
X152486004Y-74584916D01*
X152390766Y-74632535D01*
X147308345Y-75346821D02*
X147308345Y-74346821D01*
X147546440Y-74346821D01*
X147689298Y-74394440D01*
X147784536Y-74489678D01*
X147832155Y-74584916D01*
X147879774Y-74775392D01*
X147879774Y-74918250D01*
X147832155Y-75108726D01*
X147784536Y-75203964D01*
X147689298Y-75299202D01*
X147546440Y-75346821D01*
X147308345Y-75346821D01*
X148260726Y-74442059D02*
X148308345Y-74394440D01*
X148403583Y-74346821D01*
X148641679Y-74346821D01*
X148736917Y-74394440D01*
X148784536Y-74442059D01*
X148832155Y-74537297D01*
X148832155Y-74632535D01*
X148784536Y-74775392D01*
X148213107Y-75346821D01*
X148832155Y-75346821D01*
X101571467Y-83164371D02*
X101238133Y-83164371D01*
X101238133Y-83688181D02*
X101238133Y-82688181D01*
X101714324Y-82688181D01*
X102619086Y-83688181D02*
X102047657Y-83688181D01*
X102333371Y-83688181D02*
X102333371Y-82688181D01*
X102238133Y-82831038D01*
X102142895Y-82926276D01*
X102047657Y-82973895D01*
X169475827Y-26879301D02*
X169475827Y-27593587D01*
X169428207Y-27736444D01*
X169332969Y-27831682D01*
X169190112Y-27879301D01*
X169094874Y-27879301D01*
X170475827Y-27879301D02*
X169904398Y-27879301D01*
X170190112Y-27879301D02*
X170190112Y-26879301D01*
X170094874Y-27022158D01*
X169999636Y-27117396D01*
X169904398Y-27165015D01*
X86636267Y-76033381D02*
X86636267Y-76747667D01*
X86588647Y-76890524D01*
X86493409Y-76985762D01*
X86350552Y-77033381D01*
X86255314Y-77033381D01*
X87064838Y-76128619D02*
X87112457Y-76081000D01*
X87207695Y-76033381D01*
X87445791Y-76033381D01*
X87541029Y-76081000D01*
X87588648Y-76128619D01*
X87636267Y-76223857D01*
X87636267Y-76319095D01*
X87588648Y-76461952D01*
X87017219Y-77033381D01*
X87636267Y-77033381D01*
X155814734Y-75346821D02*
X155481400Y-74870630D01*
X155243305Y-75346821D02*
X155243305Y-74346821D01*
X155624258Y-74346821D01*
X155719496Y-74394440D01*
X155767115Y-74442059D01*
X155814734Y-74537297D01*
X155814734Y-74680154D01*
X155767115Y-74775392D01*
X155719496Y-74823011D01*
X155624258Y-74870630D01*
X155243305Y-74870630D01*
X156195686Y-74442059D02*
X156243305Y-74394440D01*
X156338543Y-74346821D01*
X156576639Y-74346821D01*
X156671877Y-74394440D01*
X156719496Y-74442059D01*
X156767115Y-74537297D01*
X156767115Y-74632535D01*
X156719496Y-74775392D01*
X156148067Y-75346821D01*
X156767115Y-75346821D01*
X151725334Y-33290381D02*
X151392000Y-32814190D01*
X151153905Y-33290381D02*
X151153905Y-32290381D01*
X151534858Y-32290381D01*
X151630096Y-32338000D01*
X151677715Y-32385619D01*
X151725334Y-32480857D01*
X151725334Y-32623714D01*
X151677715Y-32718952D01*
X151630096Y-32766571D01*
X151534858Y-32814190D01*
X151153905Y-32814190D01*
X152582477Y-32290381D02*
X152392000Y-32290381D01*
X152296762Y-32338000D01*
X152249143Y-32385619D01*
X152153905Y-32528476D01*
X152106286Y-32718952D01*
X152106286Y-33099905D01*
X152153905Y-33195143D01*
X152201524Y-33242762D01*
X152296762Y-33290381D01*
X152487239Y-33290381D01*
X152582477Y-33242762D01*
X152630096Y-33195143D01*
X152677715Y-33099905D01*
X152677715Y-32861810D01*
X152630096Y-32766571D01*
X152582477Y-32718952D01*
X152487239Y-32671333D01*
X152296762Y-32671333D01*
X152201524Y-32718952D01*
X152153905Y-32766571D01*
X152106286Y-32861810D01*
X143486903Y-75560181D02*
X143153569Y-75083990D01*
X142915474Y-75560181D02*
X142915474Y-74560181D01*
X143296427Y-74560181D01*
X143391665Y-74607800D01*
X143439284Y-74655419D01*
X143486903Y-74750657D01*
X143486903Y-74893514D01*
X143439284Y-74988752D01*
X143391665Y-75036371D01*
X143296427Y-75083990D01*
X142915474Y-75083990D01*
X143867855Y-74655419D02*
X143915474Y-74607800D01*
X144010712Y-74560181D01*
X144248808Y-74560181D01*
X144344046Y-74607800D01*
X144391665Y-74655419D01*
X144439284Y-74750657D01*
X144439284Y-74845895D01*
X144391665Y-74988752D01*
X143820236Y-75560181D01*
X144439284Y-75560181D01*
X144915474Y-75560181D02*
X145105950Y-75560181D01*
X145201189Y-75512562D01*
X145248808Y-75464943D01*
X145344046Y-75322086D01*
X145391665Y-75131610D01*
X145391665Y-74750657D01*
X145344046Y-74655419D01*
X145296427Y-74607800D01*
X145201189Y-74560181D01*
X145010712Y-74560181D01*
X144915474Y-74607800D01*
X144867855Y-74655419D01*
X144820236Y-74750657D01*
X144820236Y-74988752D01*
X144867855Y-75083990D01*
X144915474Y-75131610D01*
X145010712Y-75179229D01*
X145201189Y-75179229D01*
X145296427Y-75131610D01*
X145344046Y-75083990D01*
X145391665Y-74988752D01*
X174279507Y-77825282D02*
X174422364Y-77872901D01*
X174660460Y-77872901D01*
X174755698Y-77825282D01*
X174803317Y-77777663D01*
X174850936Y-77682425D01*
X174850936Y-77587187D01*
X174803317Y-77491949D01*
X174755698Y-77444330D01*
X174660460Y-77396710D01*
X174469983Y-77349091D01*
X174374745Y-77301472D01*
X174327126Y-77253853D01*
X174279507Y-77158615D01*
X174279507Y-77063377D01*
X174327126Y-76968139D01*
X174374745Y-76920520D01*
X174469983Y-76872901D01*
X174708079Y-76872901D01*
X174850936Y-76920520D01*
X175184269Y-76872901D02*
X175422364Y-77872901D01*
X175612841Y-77158615D01*
X175803317Y-77872901D01*
X176041412Y-76872901D01*
X176374745Y-76968139D02*
X176422364Y-76920520D01*
X176517602Y-76872901D01*
X176755698Y-76872901D01*
X176850936Y-76920520D01*
X176898555Y-76968139D01*
X176946174Y-77063377D01*
X176946174Y-77158615D01*
X176898555Y-77301472D01*
X176327126Y-77872901D01*
X176946174Y-77872901D01*
X174150187Y-68837442D02*
X174293044Y-68885061D01*
X174531140Y-68885061D01*
X174626378Y-68837442D01*
X174673997Y-68789823D01*
X174721616Y-68694585D01*
X174721616Y-68599347D01*
X174673997Y-68504109D01*
X174626378Y-68456490D01*
X174531140Y-68408870D01*
X174340663Y-68361251D01*
X174245425Y-68313632D01*
X174197806Y-68266013D01*
X174150187Y-68170775D01*
X174150187Y-68075537D01*
X174197806Y-67980299D01*
X174245425Y-67932680D01*
X174340663Y-67885061D01*
X174578759Y-67885061D01*
X174721616Y-67932680D01*
X175054949Y-67885061D02*
X175293044Y-68885061D01*
X175483521Y-68170775D01*
X175673997Y-68885061D01*
X175912092Y-67885061D01*
X176197806Y-67885061D02*
X176816854Y-67885061D01*
X176483520Y-68266013D01*
X176626378Y-68266013D01*
X176721616Y-68313632D01*
X176769235Y-68361251D01*
X176816854Y-68456490D01*
X176816854Y-68694585D01*
X176769235Y-68789823D01*
X176721616Y-68837442D01*
X176626378Y-68885061D01*
X176340663Y-68885061D01*
X176245425Y-68837442D01*
X176197806Y-68789823D01*
X156057695Y-67651381D02*
X156057695Y-68460905D01*
X156105314Y-68556143D01*
X156152933Y-68603762D01*
X156248171Y-68651381D01*
X156438648Y-68651381D01*
X156533886Y-68603762D01*
X156581505Y-68556143D01*
X156629124Y-68460905D01*
X156629124Y-67651381D01*
X157629124Y-68651381D02*
X157057695Y-68651381D01*
X157343409Y-68651381D02*
X157343409Y-67651381D01*
X157248171Y-67794238D01*
X157152933Y-67889476D01*
X157057695Y-67937095D01*
X145650009Y-59488390D02*
X145650009Y-59964581D01*
X145316676Y-58964581D02*
X145650009Y-59488390D01*
X145983343Y-58964581D01*
X146840486Y-59964581D02*
X146269057Y-59964581D01*
X146554771Y-59964581D02*
X146554771Y-58964581D01*
X146459533Y-59107438D01*
X146364295Y-59202676D01*
X146269057Y-59250295D01*
X134879175Y-73683381D02*
X134879175Y-74492905D01*
X134926794Y-74588143D01*
X134974413Y-74635762D01*
X135069651Y-74683381D01*
X135260128Y-74683381D01*
X135355366Y-74635762D01*
X135402985Y-74588143D01*
X135450604Y-74492905D01*
X135450604Y-73683381D01*
X135879175Y-73778619D02*
X135926794Y-73731000D01*
X136022032Y-73683381D01*
X136260128Y-73683381D01*
X136355366Y-73731000D01*
X136402985Y-73778619D01*
X136450604Y-73873857D01*
X136450604Y-73969095D01*
X136402985Y-74111952D01*
X135831556Y-74683381D01*
X136450604Y-74683381D01*
M02*
