M48
;DRILL file {KiCad 4.0.6} date Monday, March 05, 2018 'AMt' 11:38:27 AM
;FORMAT={-:-/ absolute / inch / decimal}
FMAT,2
INCH,TZ
T1C0.016
T2C0.031
T3C0.039
T4C0.053
T5C0.083
T6C0.126
%
G90
G05
M72
T1
X1.8323Y-1.4734
X1.8382Y-1.4172
X1.9165Y-3.0158
X1.964Y-1.5
X2.098Y-1.492
X2.172Y-1.45
X2.188Y-2.554
X2.32Y-1.418
X2.32Y-1.48
X2.33Y-2.544
X2.3564Y-1.9748
X2.482Y-2.528
X2.5Y-1.398
X2.5916Y-2.8981
X2.628Y-2.39
X2.704Y-2.47
X2.9086Y-1.356
X2.972Y-2.623
X2.9824Y-1.0756
X3.166Y-2.61
X3.2334Y-3.0891
X3.3165Y-2.8256
X3.32Y-2.621
X3.3992Y-2.0464
X3.558Y-1.352
X4.109Y-2.6944
X4.1862Y-2.3306
X4.29Y-1.613
X4.4648Y-1.4392
X4.8138Y-1.4364
X4.9375Y-1.55
X4.94Y-1.5975
X4.9425Y-1.645
X5.001Y-2.458
X5.171Y-2.483
X5.259Y-2.522
X5.2625Y-1.834
X5.2775Y-1.4675
X5.279Y-2.148
X5.2875Y-1.375
X5.2875Y-1.765
X5.2925Y-1.1325
X5.2925Y-1.5875
X5.2975Y-1.21
X5.3Y-1.295
X5.327Y-2.143
X5.381Y-2.541
X5.384Y-2.156
X5.527Y-2.556
X5.66Y-2.154
X5.6724Y-2.3155
X5.747Y-1.679
X5.8622Y-2.4113
X5.967Y-1.098
X6.019Y-1.573
X6.027Y-1.84
X6.032Y-1.688
X6.269Y-2.4344
X6.32Y-2.335
X6.3986Y-2.2804
X6.5092Y-2.7624
X6.6318Y-2.8058
X6.6344Y-1.5552
X6.6852Y-2.6698
X6.8824Y-1.2393
X6.9747Y-1.5934
X7.0092Y-3.0398
X7.0388Y-2.6754
X7.0716Y-2.3564
X7.239Y-2.8577
X7.2415Y-1.8952
T2
X5.816Y-1.9889
X5.816Y-2.181
T3
X2.3Y-1.1
X2.3Y-1.7
X2.3Y-2.1
X2.3Y-2.7
X2.4Y-1.1
X2.4Y-1.7
X2.4Y-2.1
X2.4Y-2.7
X2.5Y-1.1
X2.5Y-1.7
X2.5Y-2.1
X2.5Y-2.7
X2.6Y-1.1
X2.6Y-1.7
X2.6Y-2.1
X2.6Y-2.7
X2.7Y-1.1
X2.7Y-1.7
X2.7Y-2.1
X2.7Y-2.7
X2.8Y-1.1
X2.8Y-1.7
X2.8Y-2.1
X2.8Y-2.7
X4.4Y-1.1
X4.4Y-1.7
X4.4Y-2.1
X4.4Y-2.7
X4.5Y-1.1
X4.5Y-1.7
X4.5Y-2.1
X4.5Y-2.7
X4.6Y-1.1
X4.6Y-1.7
X4.6Y-2.1
X4.6Y-2.7
X4.7Y-1.1
X4.7Y-1.7
X4.7Y-2.1
X4.7Y-2.7
X4.8Y-1.1
X4.8Y-1.7
X4.8Y-2.1
X4.8Y-2.7
X4.9Y-1.1
X4.9Y-1.7
X4.9Y-2.1
X4.9Y-2.7
X5.2402Y-3.065
X5.3402Y-3.065
X5.4402Y-3.065
X6.0561Y-1.0748
X6.1561Y-1.0748
X6.1919Y-1.2844
X6.1919Y-1.3844
X6.1919Y-1.4844
X6.1919Y-1.5844
X6.1919Y-1.6844
X6.1919Y-1.7844
X6.1919Y-1.8844
X6.1919Y-1.9844
X6.1919Y-2.0844
X6.1919Y-2.1844
X6.1919Y-2.2844
X6.1919Y-2.3844
X6.1919Y-2.4844
X6.1919Y-2.5844
X6.2561Y-1.0748
X6.3561Y-1.0748
X6.4561Y-1.0748
X6.4919Y-1.2844
X6.4919Y-1.3844
X6.4919Y-1.4844
X6.4919Y-1.5844
X6.4919Y-1.6844
X6.4919Y-1.7844
X6.4919Y-1.8844
X6.4919Y-1.9844
X6.4919Y-2.0844
X6.4919Y-2.1844
X6.4919Y-2.2844
X6.4919Y-2.3844
X6.4919Y-2.4844
X6.4919Y-2.5844
X6.5561Y-1.0748
X6.8792Y-1.9014
X6.9776Y-1.9014
X7.076Y-1.9014
T4
X4.1026Y-3.1
X4.2994Y-3.1
X4.6931Y-3.1
X4.89Y-3.1
T6
X1.6668Y-1.9014
X1.6842Y-3.1604
X7.1694Y-1.2034
X7.1794Y-3.1786
T3
X3.5106Y-3.G85X3.5894Y-3.
G05
X3.5106Y-3.2362G85X3.5894Y-3.2362
G05
X3.735Y-3.1575G85X3.735Y-3.0787
G05
T5
X6.7571Y-1.6061G85X6.7571Y-1.6061
G05
X7.1981Y-1.6061G85X7.1981Y-1.6061
G05
T0
M30
