G04 #@! TF.FileFunction,Soldermask,Bot*
%FSLAX46Y46*%
G04 Gerber Fmt 4.6, Leading zero omitted, Abs format (unit mm)*
G04 Created by KiCad (PCBNEW 4.0.6) date Monday, March 05, 2018 'AMt' 11:52:21 AM*
%MOMM*%
%LPD*%
G01*
G04 APERTURE LIST*
%ADD10C,0.100000*%
%ADD11R,2.900000X2.900000*%
%ADD12C,2.178000*%
%ADD13C,6.800000*%
%ADD14R,1.900000X1.900000*%
%ADD15C,1.900000*%
%ADD16C,2.750000*%
%ADD17R,2.100000X2.100000*%
%ADD18O,2.100000X2.100000*%
%ADD19R,3.900000X3.900000*%
%ADD20R,2.100000X2.400000*%
%ADD21R,2.400000X2.100000*%
%ADD22R,2.000000X2.000000*%
%ADD23O,2.000000X2.000000*%
%ADD24R,2.400000X1.000000*%
%ADD25R,4.950000X1.400000*%
%ADD26R,1.650000X1.900000*%
%ADD27R,1.900000X1.650000*%
%ADD28R,1.200000X2.300000*%
%ADD29R,2.300000X1.200000*%
%ADD30R,2.200000X2.200000*%
%ADD31O,2.200000X2.200000*%
G04 APERTURE END LIST*
D10*
D11*
X182831040Y-40795560D03*
D12*
X177231040Y-48295560D03*
X174731040Y-48295560D03*
X179731040Y-48295560D03*
D11*
X171631040Y-40795560D03*
D13*
X182356760Y-80736440D03*
X182102760Y-30566360D03*
X42336720Y-48295560D03*
D14*
X58420000Y-68580000D03*
D15*
X60960000Y-68580000D03*
X63500000Y-68580000D03*
X66040000Y-68580000D03*
X68580000Y-68580000D03*
X71120000Y-68580000D03*
X71120000Y-53340000D03*
X68580000Y-53340000D03*
X66040000Y-53340000D03*
X63500000Y-53340000D03*
X60960000Y-53340000D03*
X58420000Y-53340000D03*
D14*
X111760000Y-68580000D03*
D15*
X114300000Y-68580000D03*
X116840000Y-68580000D03*
X119380000Y-68580000D03*
X121920000Y-68580000D03*
X124460000Y-68580000D03*
X124460000Y-53340000D03*
X121920000Y-53340000D03*
X119380000Y-53340000D03*
X116840000Y-53340000D03*
X114300000Y-53340000D03*
X111760000Y-53340000D03*
D14*
X111760000Y-43180000D03*
D15*
X114300000Y-43180000D03*
X116840000Y-43180000D03*
X119380000Y-43180000D03*
X121920000Y-43180000D03*
X124460000Y-43180000D03*
X124460000Y-27940000D03*
X121920000Y-27940000D03*
X119380000Y-27940000D03*
X116840000Y-27940000D03*
X114300000Y-27940000D03*
X111760000Y-27940000D03*
D14*
X58420000Y-43180000D03*
D15*
X60960000Y-43180000D03*
X63500000Y-43180000D03*
X66040000Y-43180000D03*
X68580000Y-43180000D03*
X71120000Y-43180000D03*
X71120000Y-27940000D03*
X68580000Y-27940000D03*
X66040000Y-27940000D03*
X63500000Y-27940000D03*
X60960000Y-27940000D03*
X58420000Y-27940000D03*
D16*
X109206000Y-78740000D03*
X104206000Y-78740000D03*
X119206000Y-78740000D03*
X124206000Y-78740000D03*
D17*
X153825000Y-27300000D03*
D18*
X156365000Y-27300000D03*
X158905000Y-27300000D03*
X161445000Y-27300000D03*
X163985000Y-27300000D03*
X166525000Y-27300000D03*
D19*
X90170000Y-76200000D03*
X90170000Y-82200000D03*
X94870000Y-79200000D03*
D20*
X154101800Y-74606400D03*
X154101800Y-78606400D03*
D21*
X154400000Y-55473600D03*
X150400000Y-55473600D03*
D20*
X161899600Y-74555600D03*
X161899600Y-78555600D03*
X168351200Y-32569400D03*
X168351200Y-36569400D03*
D21*
X148939000Y-27749500D03*
X144939000Y-27749500D03*
X149002500Y-31686500D03*
X145002500Y-31686500D03*
X149066000Y-39624000D03*
X145066000Y-39624000D03*
X149066000Y-35814000D03*
X145066000Y-35814000D03*
X142208000Y-33782000D03*
X138208000Y-33782000D03*
X142208000Y-29718000D03*
X138208000Y-29718000D03*
X142208000Y-41656000D03*
X138208000Y-41656000D03*
X142208000Y-37592000D03*
X138208000Y-37592000D03*
D20*
X158013400Y-74581000D03*
X158013400Y-78581000D03*
X150190200Y-74581000D03*
X150190200Y-78581000D03*
X169748200Y-74606400D03*
X169748200Y-78606400D03*
X165912800Y-74606400D03*
X165912800Y-78606400D03*
D21*
X127768600Y-53187600D03*
X131768600Y-53187600D03*
X137979400Y-53136800D03*
X141979400Y-53136800D03*
X138081000Y-49961800D03*
X142081000Y-49961800D03*
X127794000Y-49276000D03*
X131794000Y-49276000D03*
X138182600Y-46380400D03*
X142182600Y-46380400D03*
X145421600Y-45135800D03*
X149421600Y-45135800D03*
X101060000Y-57404000D03*
X97060000Y-57404000D03*
X103156000Y-39116000D03*
X107156000Y-39116000D03*
X101060000Y-53594000D03*
X97060000Y-53594000D03*
X103156000Y-42926000D03*
X107156000Y-42926000D03*
X101060000Y-60960000D03*
X97060000Y-60960000D03*
X101060000Y-64516000D03*
X97060000Y-64516000D03*
X101060000Y-68072000D03*
X97060000Y-68072000D03*
X116808000Y-65024000D03*
X112808000Y-65024000D03*
X72930000Y-45720000D03*
X76930000Y-45720000D03*
X80804000Y-45720000D03*
X84804000Y-45720000D03*
X82328000Y-54864000D03*
X86328000Y-54864000D03*
X82328000Y-67564000D03*
X86328000Y-67564000D03*
D20*
X84836000Y-38132000D03*
X84836000Y-42132000D03*
D21*
X83852000Y-31750000D03*
X87852000Y-31750000D03*
X83852000Y-27432000D03*
X87852000Y-27432000D03*
X77375000Y-40005000D03*
X81375000Y-40005000D03*
X100044000Y-28448000D03*
X96044000Y-28448000D03*
X100044000Y-32512000D03*
X96044000Y-32512000D03*
X115284000Y-35052000D03*
X111284000Y-35052000D03*
X115284000Y-39624000D03*
X111284000Y-39624000D03*
D22*
X157275000Y-32625000D03*
D23*
X164895000Y-65645000D03*
X157275000Y-35165000D03*
X164895000Y-63105000D03*
X157275000Y-37705000D03*
X164895000Y-60565000D03*
X157275000Y-40245000D03*
X164895000Y-58025000D03*
X157275000Y-42785000D03*
X164895000Y-55485000D03*
X157275000Y-45325000D03*
X164895000Y-52945000D03*
X157275000Y-47865000D03*
X164895000Y-50405000D03*
X157275000Y-50405000D03*
X164895000Y-47865000D03*
X157275000Y-52945000D03*
X164895000Y-45325000D03*
X157275000Y-55485000D03*
X164895000Y-42785000D03*
X157275000Y-58025000D03*
X164895000Y-40245000D03*
X157275000Y-60565000D03*
X164895000Y-37705000D03*
X157275000Y-63105000D03*
X164895000Y-35165000D03*
X157275000Y-65645000D03*
X164895000Y-32625000D03*
D24*
X89280000Y-50165000D03*
X89280000Y-48895000D03*
X89280000Y-47625000D03*
X89280000Y-46355000D03*
X89280000Y-45085000D03*
X89280000Y-43815000D03*
X89280000Y-42545000D03*
X89280000Y-41275000D03*
X89280000Y-40005000D03*
X89280000Y-38735000D03*
X89280000Y-37465000D03*
X89280000Y-36195000D03*
X98680000Y-36195000D03*
X98680000Y-37465000D03*
X98680000Y-38735000D03*
X98680000Y-40005000D03*
X98680000Y-41275000D03*
X98680000Y-42545000D03*
X98680000Y-43815000D03*
X98680000Y-45085000D03*
X98680000Y-46355000D03*
X98680000Y-47625000D03*
X98680000Y-48895000D03*
X98680000Y-50165000D03*
D15*
X147726400Y-55397400D03*
X147726400Y-50517400D03*
D25*
X152374600Y-58012200D03*
X152374600Y-61012200D03*
D20*
X135178800Y-70935600D03*
X135178800Y-66935600D03*
X128574800Y-70910200D03*
X128574800Y-66910200D03*
X133172200Y-61512200D03*
X133172200Y-57512200D03*
X141732000Y-70884800D03*
X141732000Y-66884800D03*
X138430000Y-70935600D03*
X138430000Y-66935600D03*
X131927600Y-70884800D03*
X131927600Y-66884800D03*
X129616200Y-61537600D03*
X129616200Y-57537600D03*
X136982200Y-61512200D03*
X136982200Y-57512200D03*
X61214000Y-64865000D03*
X61214000Y-60865000D03*
X68643500Y-64801500D03*
X68643500Y-60801500D03*
D21*
X63468500Y-56642000D03*
X67468500Y-56642000D03*
D20*
X53784500Y-64738000D03*
X53784500Y-60738000D03*
X57353200Y-64839600D03*
X57353200Y-60839600D03*
X65024000Y-64801500D03*
X65024000Y-60801500D03*
D21*
X78568800Y-60350400D03*
X82568800Y-60350400D03*
D20*
X72491600Y-60788800D03*
X72491600Y-64788800D03*
D21*
X127921000Y-40703500D03*
X131921000Y-40703500D03*
X127921000Y-43370500D03*
X131921000Y-43370500D03*
X127921000Y-29908500D03*
X131921000Y-29908500D03*
X127921000Y-35306000D03*
X131921000Y-35306000D03*
X127921000Y-37973000D03*
X131921000Y-37973000D03*
X127921000Y-45974000D03*
X131921000Y-45974000D03*
X127921000Y-32575500D03*
X131921000Y-32575500D03*
X127921000Y-27241500D03*
X131921000Y-27241500D03*
D20*
X47599600Y-44011600D03*
X47599600Y-40011600D03*
X40604440Y-42858440D03*
X40604440Y-38858440D03*
X60909200Y-31985200D03*
X60909200Y-35985200D03*
X54914800Y-43960800D03*
X54914800Y-39960800D03*
X51155600Y-44011600D03*
X51155600Y-40011600D03*
X43863260Y-42909240D03*
X43863260Y-38909240D03*
X53340000Y-32086800D03*
X53340000Y-36086800D03*
X57150000Y-31985200D03*
X57150000Y-35985200D03*
D26*
X145745200Y-56749000D03*
X145745200Y-54249000D03*
X145745200Y-49321400D03*
X145745200Y-51821400D03*
D27*
X134503480Y-81310480D03*
X132003480Y-81310480D03*
X146171600Y-59512200D03*
X148671600Y-59512200D03*
X149016400Y-63017400D03*
X151516400Y-63017400D03*
X137738800Y-81290160D03*
X140238800Y-81290160D03*
D26*
X162712400Y-56088600D03*
X162712400Y-53588600D03*
D28*
X106542800Y-53364000D03*
X108442800Y-53364000D03*
X107492800Y-56364000D03*
X115153400Y-55904000D03*
X117053400Y-55904000D03*
X116103400Y-58904000D03*
X120030200Y-56005600D03*
X121930200Y-56005600D03*
X120980200Y-59005600D03*
X124063800Y-65838200D03*
X122163800Y-65838200D03*
X123113800Y-62838200D03*
X54015600Y-53287800D03*
X55915600Y-53287800D03*
X54965600Y-56287800D03*
D29*
X66193800Y-49291200D03*
X66193800Y-51191200D03*
X63193800Y-50241200D03*
X78992600Y-52156400D03*
X78992600Y-50256400D03*
X81992600Y-51206400D03*
X75385800Y-71409600D03*
X75385800Y-69509600D03*
X78385800Y-70459600D03*
D28*
X103088400Y-27405200D03*
X104988400Y-27405200D03*
X104038400Y-30405200D03*
D29*
X109447200Y-32103100D03*
X109447200Y-30203100D03*
X112447200Y-31153100D03*
X119213500Y-33462000D03*
X119213500Y-31562000D03*
X122213500Y-32512000D03*
X119216040Y-39552920D03*
X119216040Y-37652920D03*
X122216040Y-38602920D03*
X65530600Y-36184880D03*
X65530600Y-34284880D03*
X68530600Y-35234880D03*
X79513560Y-33512720D03*
X79513560Y-35412720D03*
X76513560Y-34462720D03*
X79513560Y-28371760D03*
X79513560Y-30271760D03*
X76513560Y-29321760D03*
D28*
X73771800Y-40346760D03*
X71871800Y-40346760D03*
X72821800Y-37346760D03*
D13*
X42778680Y-80274160D03*
D30*
X133101080Y-77851000D03*
D31*
X135641080Y-77851000D03*
X138181080Y-77851000D03*
D17*
X146319240Y-70383400D03*
X98336100Y-73101200D03*
M02*
