G04 #@! TF.FileFunction,Soldermask,Top*
%FSLAX46Y46*%
G04 Gerber Fmt 4.6, Leading zero omitted, Abs format (unit mm)*
G04 Created by KiCad (PCBNEW 4.0.6) date Monday, March 05, 2018 'AMt' 11:38:23 AM*
%MOMM*%
%LPD*%
G01*
G04 APERTURE LIST*
%ADD10C,0.100000*%
%ADD11R,3.150000X1.400000*%
%ADD12R,2.900000X2.900000*%
%ADD13C,2.178000*%
%ADD14C,6.800000*%
%ADD15R,1.900000X1.900000*%
%ADD16C,1.900000*%
%ADD17R,2.100000X2.400000*%
%ADD18C,2.750000*%
%ADD19R,2.100000X2.100000*%
%ADD20O,2.100000X2.100000*%
%ADD21R,3.900000X3.900000*%
%ADD22R,2.400000X2.100000*%
%ADD23R,2.000000X2.000000*%
%ADD24O,2.000000X2.000000*%
%ADD25R,2.200000X2.200000*%
%ADD26O,2.200000X2.200000*%
G04 APERTURE END LIST*
D10*
D11*
X174381440Y-52980840D03*
X180131440Y-52980840D03*
X180131440Y-56980840D03*
X174381440Y-56980840D03*
D12*
X182831040Y-40795560D03*
D13*
X177231040Y-48295560D03*
X174731040Y-48295560D03*
X179731040Y-48295560D03*
D12*
X171631040Y-40795560D03*
D14*
X182356760Y-80736440D03*
X182102760Y-30566360D03*
X42336720Y-48295560D03*
D15*
X58420000Y-68580000D03*
D16*
X60960000Y-68580000D03*
X63500000Y-68580000D03*
X66040000Y-68580000D03*
X68580000Y-68580000D03*
X71120000Y-68580000D03*
X71120000Y-53340000D03*
X68580000Y-53340000D03*
X66040000Y-53340000D03*
X63500000Y-53340000D03*
X60960000Y-53340000D03*
X58420000Y-53340000D03*
D15*
X111760000Y-68580000D03*
D16*
X114300000Y-68580000D03*
X116840000Y-68580000D03*
X119380000Y-68580000D03*
X121920000Y-68580000D03*
X124460000Y-68580000D03*
X124460000Y-53340000D03*
X121920000Y-53340000D03*
X119380000Y-53340000D03*
X116840000Y-53340000D03*
X114300000Y-53340000D03*
X111760000Y-53340000D03*
D15*
X111760000Y-43180000D03*
D16*
X114300000Y-43180000D03*
X116840000Y-43180000D03*
X119380000Y-43180000D03*
X121920000Y-43180000D03*
X124460000Y-43180000D03*
X124460000Y-27940000D03*
X121920000Y-27940000D03*
X119380000Y-27940000D03*
X116840000Y-27940000D03*
X114300000Y-27940000D03*
X111760000Y-27940000D03*
D15*
X58420000Y-43180000D03*
D16*
X60960000Y-43180000D03*
X63500000Y-43180000D03*
X66040000Y-43180000D03*
X68580000Y-43180000D03*
X71120000Y-43180000D03*
X71120000Y-27940000D03*
X68580000Y-27940000D03*
X66040000Y-27940000D03*
X63500000Y-27940000D03*
X60960000Y-27940000D03*
X58420000Y-27940000D03*
D17*
X152146000Y-82010000D03*
X152146000Y-78010000D03*
X148082000Y-82010000D03*
X148082000Y-78010000D03*
D18*
X109206000Y-78740000D03*
X104206000Y-78740000D03*
X119206000Y-78740000D03*
X124206000Y-78740000D03*
D19*
X153825000Y-27300000D03*
D20*
X156365000Y-27300000D03*
X158905000Y-27300000D03*
X161445000Y-27300000D03*
X163985000Y-27300000D03*
X166525000Y-27300000D03*
D21*
X90170000Y-76200000D03*
X90170000Y-82200000D03*
X94870000Y-79200000D03*
D17*
X155956000Y-82010000D03*
X155956000Y-78010000D03*
D22*
X153892000Y-30988000D03*
X149892000Y-30988000D03*
D17*
X144018000Y-82010000D03*
X144018000Y-78010000D03*
D11*
X174381440Y-70892920D03*
X180131440Y-70892920D03*
X180131440Y-74892920D03*
X174381440Y-74892920D03*
X174335720Y-61936880D03*
X180085720Y-61936880D03*
X180085720Y-65936880D03*
X174335720Y-65936880D03*
D23*
X157275000Y-32625000D03*
D24*
X164895000Y-65645000D03*
X157275000Y-35165000D03*
X164895000Y-63105000D03*
X157275000Y-37705000D03*
X164895000Y-60565000D03*
X157275000Y-40245000D03*
X164895000Y-58025000D03*
X157275000Y-42785000D03*
X164895000Y-55485000D03*
X157275000Y-45325000D03*
X164895000Y-52945000D03*
X157275000Y-47865000D03*
X164895000Y-50405000D03*
X157275000Y-50405000D03*
X164895000Y-47865000D03*
X157275000Y-52945000D03*
X164895000Y-45325000D03*
X157275000Y-55485000D03*
X164895000Y-42785000D03*
X157275000Y-58025000D03*
X164895000Y-40245000D03*
X157275000Y-60565000D03*
X164895000Y-37705000D03*
X157275000Y-63105000D03*
X164895000Y-35165000D03*
X157275000Y-65645000D03*
X164895000Y-32625000D03*
D16*
X147726400Y-55397400D03*
X147726400Y-50517400D03*
D14*
X42778680Y-80274160D03*
D25*
X133101080Y-77851000D03*
D26*
X135641080Y-77851000D03*
X138181080Y-77851000D03*
M02*
